HIERARCHY
ROOT Hips
{
 OFFSET 0.000000 0.000000 0.000000
 CHANNELS 6 Xposition Yposition Zposition Yrotation Xrotation Zrotation
 JOINT Chest
 {
  OFFSET 0.000000 10.383400 0.001500
  CHANNELS 3 Yrotation Xrotation Zrotation
  JOINT Chest2
  {
   OFFSET 0.000000 10.418200 -0.003100
   CHANNELS 3 Yrotation Xrotation Zrotation
   JOINT Chest3
   {
    OFFSET 0.000000 10.375100 0.000000
    CHANNELS 3 Yrotation Xrotation Zrotation
    JOINT Chest4
    {
     OFFSET 0.000000 10.364600 0.000000
     CHANNELS 3 Yrotation Xrotation Zrotation
     JOINT Neck
     {
      OFFSET 0.000000 15.642200 0.000000
      CHANNELS 3 Yrotation Xrotation Zrotation
      JOINT Head
      {
       OFFSET 0.000000 9.697300 -0.006500
       CHANNELS 3 Yrotation Xrotation Zrotation
       End Site
       {
        OFFSET 0.000000 18.492200 -0.003400
       }
      }
     }
     JOINT RightCollar
     {
      OFFSET -3.166800 10.349300 0.000000
      CHANNELS 3 Yrotation Xrotation Zrotation
      JOINT RightShoulder
      {
       OFFSET -14.729700 0.000000 0.000000
       CHANNELS 3 Yrotation Xrotation Zrotation
       JOINT RightElbow
       {
        OFFSET 0.000000 -32.224300 0.000000
        CHANNELS 3 Yrotation Xrotation Zrotation
        JOINT RightWrist
        {
         OFFSET 0.000000 -26.084100 0.000000
         CHANNELS 3 Yrotation Xrotation Zrotation
         End Site
         {
          OFFSET 0.000000 -19.319400 0.000000
         }
        }
       }
      }
     }
     JOINT LeftCollar
     {
      OFFSET 3.166800 10.349300 0.000000
      CHANNELS 3 Yrotation Xrotation Zrotation
      JOINT LeftShoulder
      {
       OFFSET 14.729700 0.000000 0.000000
       CHANNELS 3 Yrotation Xrotation Zrotation
       JOINT LeftElbow
       {
        OFFSET 0.000000 -32.224300 0.000000
        CHANNELS 3 Yrotation Xrotation Zrotation
        JOINT LeftWrist
        {
         OFFSET 0.000000 -26.084100 0.000000
         CHANNELS 3 Yrotation Xrotation Zrotation
         End Site
         {
          OFFSET 0.000000 -19.319400 0.000000
         }
        }
       }
      }
     }
    }
   }
  }
 }
 JOINT RightHip
 {
  OFFSET -8.428900 -0.007500 -0.000800
  CHANNELS 3 Yrotation Xrotation Zrotation
  JOINT RightKnee
  {
   OFFSET 0.000000 -43.834600 0.000700
   CHANNELS 3 Yrotation Xrotation Zrotation
   JOINT RightAnkle
   {
    OFFSET 0.000000 -42.757000 0.001200
    CHANNELS 3 Yrotation Xrotation Zrotation
    JOINT RightToe
    {
     OFFSET 0.000000 -6.946900 15.649300
     CHANNELS 3 Yrotation Xrotation Zrotation
     End Site
     {
      OFFSET 0.000000 -1.580800 6.825800
     }
    }
   }
  }
 }
 JOINT LeftHip
 {
  OFFSET 8.428900 -0.007500 -0.000800
  CHANNELS 3 Yrotation Xrotation Zrotation
  JOINT LeftKnee
  {
   OFFSET 0.000000 -43.834600 0.000700
   CHANNELS 3 Yrotation Xrotation Zrotation
   JOINT LeftAnkle
   {
    OFFSET 0.000000 -42.757000 0.001200
    CHANNELS 3 Yrotation Xrotation Zrotation
    JOINT LeftToe
    {
     OFFSET 0.000000 -6.946900 15.649300
     CHANNELS 3 Yrotation Xrotation Zrotation
     End Site
     {
      OFFSET 0.000000 -1.580800 6.825800
     }
    }
   }
  }
 }
}
MOTION
Frames: 14
Frame Time: 0.008333
0.000000 93.354300 0.000000 0.000000 -5.767877 0.000000 0.000000 11.653817 0.000000 0.000000 -5.885947 0.000000 0.000000 -0.000000 0.000000 0.000000 -0.000000 0.000000 0.000000 12.528835 0.000000 0.000000 0.711642 0.000000 0.000000 -0.000000 0.000000 0.000000 0.000000 -90.000000 0.000000 -2.309062 0.000000 0.000000 2.309062 0.000000 0.000000 -0.000000 0.000000 0.000000 -0.000000 90.000000 0.000000 -2.309062 0.000000 0.000000 2.309062 0.000000 0.000000 8.520406 0.000000 0.000000 1.905762 0.000000 -0.000000 -4.658285 0.000000 0.000000 -0.000000 0.000000 0.000000 8.520406 0.000000 0.000000 1.905762 0.000000 -0.000000 -4.658285 0.000000 0.000000 -0.000000 0.000000
123.767894 126.960249 33.514897 -15.987355 -28.694496 -0.602556 -0.962241 16.782244 1.700552 -0.124656 1.730827 0.189206 -0.200852 2.895492 0.311967 -0.865101 14.790086 1.510128 2.138849 13.458460 -1.329102 4.589133 -10.691807 -3.372654 0.521076 -6.906456 -3.101499 8.239907 -15.655340 -7.223187 23.821891 -35.358796 -0.828009 4.660492 4.438259 -22.972387 -5.020260 -8.531711 -4.390776 -3.152460 -10.342047 6.669858 -32.995778 -43.460168 10.490589 -22.489173 8.966322 16.534034 -6.328899 -39.974219 0.129090 -28.546584 80.115425 -29.262158 3.595615 -10.563822 2.237897 -0.000109 -0.008524 -0.000048 -4.381589 -32.262141 -7.357526 0.850179 74.988352 3.966423 -11.035412 -11.949172 -1.560449 0.000090 0.000959 0.000040
123.768058 126.960374 33.514678 -15.985218 -28.696507 -0.603524 -0.966451 16.779589 1.700734 -0.125465 1.730859 0.189883 -0.201627 2.894913 0.311977 -0.872066 14.790412 1.510506 2.142844 13.455922 -1.331433 4.588962 -10.694475 -3.374212 0.529436 -6.901401 -3.106547 8.234529 -15.655127 -7.221554 23.815419 -35.361369 -0.829342 4.669497 4.437339 -22.969785 -5.005429 -8.530054 -4.392375 -3.151707 -10.341589 6.665276 -32.993993 -43.463744 10.482780 -22.488153 8.968743 16.531831 -6.330851 -39.973129 0.128798 -28.551261 80.116725 -29.264576 3.593856 -10.565180 2.236273 0.002029 -0.008964 0.000900 -4.381585 -32.262194 -7.357753 0.846415 74.991824 3.965340 -11.045286 -11.950534 -1.560102 -0.000188 0.000820 -0.000083
123.768424 126.960396 33.514312 -15.984998 -28.697475 -0.602762 -0.971582 16.773432 1.702547 -0.122989 1.734787 0.188047 -0.201934 2.894257 0.311767 -0.879519 14.785415 1.510772 2.148025 13.458686 -1.334660 4.590226 -10.705171 -3.376001 0.534174 -6.893658 -3.107979 8.231436 -15.651429 -7.219282 23.821511 -35.364279 -0.834642 4.672004 4.436470 -22.972303 -4.999845 -8.529111 -4.392406 -3.146336 -10.335895 6.656347 -32.988449 -43.461383 10.480101 -22.493899 8.968643 16.532127 -6.331023 -39.972603 0.130007 -28.533151 80.116588 -29.250109 3.588121 -10.564195 2.239513 0.002412 -0.008300 0.001070 -4.381052 -32.263588 -7.359911 0.855755 74.997415 3.970545 -11.036940 -11.953453 -1.557490 -0.000317 0.000625 -0.000141
123.768568 126.960434 33.513913 -15.985049 -28.698641 -0.603292 -0.971888 16.773638 1.704362 -0.123033 1.734633 0.187972 -0.202805 2.892600 0.312109 -0.880398 14.783671 1.509520 2.149137 13.457351 -1.334463 4.591793 -10.707184 -3.377314 0.523813 -6.891610 -3.101264 8.235177 -15.643713 -7.219065 23.824974 -35.367438 -0.845482 4.677886 4.432697 -22.966051 -4.996170 -8.533080 -4.395201 -3.140555 -10.332110 6.656617 -32.990200 -43.464851 10.470501 -22.497132 8.971540 16.533492 -6.331966 -39.971584 0.131484 -28.523479 80.117464 -29.242080 3.585078 -10.564748 2.240625 0.003011 -0.007320 0.001336 -4.382010 -32.264108 -7.362228 0.858845 75.003751 3.968734 -11.012321 -11.959073 -1.557785 0.000163 0.001077 0.000073
123.769515 126.960359 33.513560 -15.987228 -28.698632 -0.598872 -0.971624 16.773081 1.702414 -0.122994 1.734446 0.187882 -0.204679 2.890620 0.310295 -0.881886 14.777254 1.512011 2.151910 13.460848 -1.336950 4.596533 -10.709036 -3.379436 0.520789 -6.882253 -3.102412 8.224134 -15.644135 -7.214087 23.837985 -35.372123 -0.854951 4.681452 4.434291 -22.956637 -4.995484 -8.525254 -4.398649 -3.136578 -10.331406 6.655743 -32.989742 -43.464461 10.472388 -22.502687 8.967526 16.528788 -6.328238 -39.972371 0.126836 -28.511234 80.119936 -29.231905 3.584558 -10.567299 2.241657 0.004161 -0.005397 0.001847 -4.378042 -32.267066 -7.366437 0.870887 75.008044 3.978580 -11.018339 -11.961053 -1.554681 -0.000450 0.000973 -0.000200
123.769982 126.959839 33.512212 -15.987983 -28.693419 -0.599715 -0.972749 16.767336 1.701397 -0.126791 1.731060 0.186471 -0.202159 2.892517 0.311970 -0.881821 14.777095 1.512966 2.154969 13.459373 -1.337600 4.602558 -10.711573 -3.381983 0.521119 -6.879805 -3.101888 8.218160 -15.645517 -7.214133 23.841321 -35.374506 -0.860083 4.682241 4.434364 -22.948027 -4.994979 -8.521385 -4.398310 -3.135954 -10.334995 6.652872 -32.987827 -43.461013 10.474027 -22.505073 8.965028 16.527783 -6.325742 -39.979802 0.124712 -28.483249 80.123272 -29.205273 3.577959 -10.569402 2.253937 0.000313 -0.007399 0.000139 -4.378270 -32.276445 -7.365094 0.880431 75.013305 3.987045 -11.023114 -11.962632 -1.553095 -0.001052 0.000913 -0.000467
123.769528 126.960198 33.512215 -15.994317 -28.698077 -0.601233 -0.969498 16.769111 1.703458 -0.127078 1.732187 0.186879 -0.202124 2.892464 0.312174 -0.881454 14.776951 1.514210 2.157740 13.458725 -1.338043 4.607960 -10.712730 -3.383972 0.522349 -6.877337 -3.100751 8.212759 -15.645863 -7.215042 23.833072 -35.380980 -0.863357 4.690489 4.440380 -22.941402 -4.993269 -8.518199 -4.399392 -3.133652 -10.337476 6.648374 -32.992172 -43.460465 10.479808 -22.508737 8.960563 16.528360 -6.320236 -39.975778 0.124320 -28.479613 80.125273 -29.198216 3.581159 -10.570376 2.255365 -0.000505 -0.007629 -0.000224 -4.375464 -32.273132 -7.359597 0.881983 75.016984 3.986924 -11.027528 -11.965503 -1.550863 -0.001321 0.001145 -0.000587
123.769519 126.960202 33.511662 -15.995279 -28.698583 -0.604147 -0.972463 16.768197 1.703584 -0.124580 1.731648 0.188994 -0.202395 2.892618 0.312121 -0.881100 14.774734 1.516661 2.159138 13.459331 -1.337921 4.610532 -10.711592 -3.384272 0.516387 -6.873767 -3.097599 8.214574 -15.645017 -7.219511 23.833902 -35.382496 -0.865474 4.698327 4.439722 -22.940874 -4.993852 -8.513392 -4.401783 -3.150283 -10.337265 6.642761 -32.978526 -43.455976 10.488419 -22.521698 8.951683 16.522244 -6.319397 -39.975636 0.124901 -28.480596 80.128688 -29.200349 3.585726 -10.574111 2.260270 -0.002169 -0.006722 -0.000963 -4.371925 -32.275542 -7.359204 0.888324 75.023543 3.988268 -11.006241 -11.966366 -1.545691 0.000280 0.000426 0.000124
123.769595 126.960297 33.511281 -15.993577 -28.699937 -0.607682 -0.975755 16.768244 1.705941 -0.122397 1.730748 0.189211 -0.202777 2.894148 0.311836 -0.880677 14.771749 1.519625 2.159278 13.460230 -1.337911 4.610071 -10.711443 -3.382371 0.510641 -6.870671 -3.100298 8.214489 -15.645866 -7.220098 23.835000 -35.382903 -0.865263 4.701167 4.439556 -22.938878 -4.996732 -8.509474 -4.409296 -3.152954 -10.338449 6.648525 -32.973978 -43.454678 10.485806 -22.528744 8.953593 16.519097 -6.322014 -39.974039 0.125538 -28.472013 80.133991 -29.188706 3.583885 -10.581787 2.258613 -0.000229 -0.006210 -0.000101 -4.367533 -32.276371 -7.359638 0.887334 75.027693 3.988059 -11.006938 -11.965791 -1.537413 0.000028 -0.000141 0.000013
123.769713 126.960280 33.510675 -15.994745 -28.699764 -0.609718 -0.972904 16.765735 1.709770 -0.123698 1.731451 0.188410 -0.201380 2.892864 0.313317 -0.882144 14.773308 1.519447 2.159267 13.460676 -1.338134 4.609416 -10.712152 -3.380858 0.501733 -6.863636 -3.092002 8.221079 -15.652646 -7.230827 23.836728 -35.382704 -0.862942 4.703514 4.441397 -22.938836 -5.000192 -8.510865 -4.415423 -3.153364 -10.337286 6.654950 -32.971074 -43.453694 10.480792 -22.528546 8.954671 16.521032 -6.321144 -39.975851 0.125046 -28.464260 80.137189 -29.175572 3.585518 -10.584613 2.253588 0.002173 -0.007740 0.000964 -4.364494 -32.275659 -7.362010 0.903772 75.029250 4.000821 -10.987103 -11.967402 -1.534563 0.000799 0.001087 0.000355
123.770017 126.960415 33.510407 -15.995445 -28.701093 -0.610044 -0.973287 16.764997 1.709297 -0.122869 1.733079 0.189120 -0.202110 2.891560 0.313073 -0.881728 14.774480 1.520358 2.159149 13.459221 -1.336357 4.610081 -10.711677 -3.381321 0.502213 -6.862440 -3.092053 8.218391 -15.655032 -7.229556 23.839611 -35.384164 -0.862459 4.708829 4.447203 -22.940659 -4.998264 -8.515497 -4.419536 -3.157086 -10.333020 6.657658 -32.971065 -43.457528 10.475235 -22.528003 8.958566 16.522320 -6.320249 -39.975748 0.124064 -28.459105 80.140097 -29.168784 3.581077 -10.588426 2.251695 0.001573 -0.008698 0.000698 -4.359740 -32.272765 -7.365187 0.910940 75.028838 4.009266 -10.991761 -11.968604 -1.526428 0.000455 0.001842 0.000202
123.770360 126.960428 33.509915 -15.994654 -28.700725 -0.610738 -0.974018 16.764636 1.709641 -0.122937 1.733106 0.189280 -0.200776 2.889996 0.315117 -0.881587 14.773316 1.522678 2.159701 13.460550 -1.336521 4.610510 -10.711116 -3.382611 0.496557 -6.857133 -3.096115 8.221234 -15.659191 -7.225294 23.858080 -35.382986 -0.873348 4.699804 4.450204 -22.942661 -4.999120 -8.515534 -4.427233 -3.158703 -10.330932 6.660500 -32.981161 -43.462564 10.481815 -22.519541 8.961549 16.527572 -6.318558 -39.976999 0.121650 -28.457558 80.142530 -29.165096 3.580188 -10.591185 2.252397 0.001060 -0.008892 0.000470 -4.357011 -32.272046 -7.367941 0.914763 75.027979 4.015276 -10.998629 -11.968246 -1.521920 0.000352 0.002151 0.000156
123.771135 126.960431 33.509552 -15.991014 -28.700096 -0.609929 -0.977034 16.762777 1.708350 -0.122962 1.732739 0.189230 -0.200206 2.890699 0.315390 -0.883363 14.773253 1.521857 2.159964 13.460487 -1.336111 4.611857 -10.709966 -3.380108 0.499293 -6.864152 -3.099783 8.212842 -15.649514 -7.214028 23.873128 -35.381062 -0.880456 4.697511 4.449322 -22.947693 -4.998936 -8.514980 -4.429322 -3.162410 -10.333813 6.661885 -32.974127 -43.459370 10.475497 -22.516089 8.961825 16.529956 -6.317608 -39.977679 0.116455 -28.456080 80.144317 -29.163163 3.579896 -10.594981 2.254612 0.000786 -0.008302 0.000349 -4.357523 -32.271995 -7.370145 0.898945 75.025561 4.001531 -11.017267 -11.966361 -1.516664 -0.000214 0.001989 -0.000095
